<svg xmlns="http://www.w3.org/2000/svg" version="1.1" xmlns:xlink="http://www.w3.org/1999/xlink" viewBox="0 0 9.499075205433186 9.516007114523365"><g transform="matrix(1,0,0,1,2.7862340568936856,2.8302896069767898)"><rect width="9.516007114523365" height="9.516007114523365" x="-2.794700011438775" y="-2.8302896069767898" fill="#f06909"></rect><g><path d=" M -0.6077144290243273 -0.11675717471346653 L -0.8822406963509882 -0.1597603344542421 L -0.8941891422010457 -0.14402083755096584 L -0.699319180541435 0.003912301544984703 L -0.8108380084753055 0.15081427264222969 L -1.3392354045138652 -0.2503121237525593 L -1.1634225584344473 -0.4819075781864812 Q -1.1150598014223094 -0.5456150656521233 -1.0593801126699263 -0.5730508354005328 Q -1.0037004239175433 -0.6004866051489424 -0.9480319731546647 -0.593669459711815 Q -0.8923635223917858 -0.5868523142746875 -0.8443955318294202 -0.5504380031126073 Q -0.7904315424467587 -0.5094719030552672 -0.7720582581538405 -0.4488575970310982 Q -0.7536849738609224 -0.38824329100692934 -0.7796884717575423 -0.3181949091402475 L -0.4831092080165843 -0.28089764241906173 L -0.6077144290243273 -0.11675717471346653 M -0.994622122440999 -0.22026330154657114 L -0.9394316820859713 -0.2929647872426567 Q -0.9166727376096712 -0.3229447813441353 -0.9195337625697235 -0.348745277021117 Q -0.9223947875297758 -0.37454577269809886 -0.9493767822211064 -0.39502882272676887 Q -0.9748597772073633 -0.414373925531624 -1.0011389833759379 -0.4101041639868125 Q -1.0274181895445125 -0.4058344024420011 -1.049608160408905 -0.37660390819305944 L -1.1047986007639328 -0.30390242249697386 L -0.994622122440999 -0.22026330154657114 M -0.6139975696888295 -0.8635309296962225 L -0.5410723052357969 -0.7835784936516886 L -0.3846436260182307 -0.9262583588858827 L -0.29015784859647553 -0.8226678113151389 L -0.44658652781404173 -0.6799879460809448 L -0.36605167054851884 -0.5916926471448074 L -0.18876583410194386 -0.7533964944102274 L -0.08920699480519512 -0.6442440382450813 L -0.4027595918146277 -0.35825017504231893 L -0.8498231695484358 -0.8483933699240263 L -0.5362705725390031 -1.1343872331267886 L -0.43671173324225443 -1.0252347769616423 L -0.6139975696888295 -0.8635309296962225 M -0.24261121395229032 -1.1683716586094905 Q -0.24724370260649844 -1.2551799395702874 -0.20495941937911244 -1.3307595984223635 Q -0.16267513615172638 -1.4063392572744395 -0.07891749238207663 -1.45695565388815 Q 0.027390286248632656 -1.5211995418978597 0.13418493913839297 -1.5082241746812601 Q 0.24097959202815328 -1.4952488074646606 0.3208092336461329 -1.410454109539938 L 0.15087786022886274 -1.3077612279486597 Q 0.11610813815028798 -1.3307284800171741 0.07890789396594966 -1.3313367610998985 Q 0.041707649781611345 -1.3319450421826229 0.006271723571374899 -1.310530412846053 Q -0.04849288966262688 -1.277435076598627 -0.05750528713287548 -1.2186638286593645 Q -0.06651768460312404 -1.1598925807201022 -0.02709529877898406 -1.0946582620148941 Q 0.012813783166441578 -1.0286185813503628 0.06903570440140097 -1.0092697192352402 Q 0.12525762563636036 -0.9899208571201177 0.18002223887036214 -1.023016193367544 Q 0.21545816508059856 -1.0444308227041137 0.2322171721709384 -1.0776477439129786 Q 0.24897617926127824 -1.1108646651218437 0.24481021163699868 -1.1523263697992137 L 0.41474158505426884 -1.2550192513904919 Q 0.4526924047874235 -1.144916355158914 0.41452190499894387 -1.0443356861108923 Q 0.37635140521046423 -0.9437550170628706 0.27004362657975495 -0.879511129053161 Q 0.1862859828101052 -0.8288947324394504 0.09971235254572239 -0.8266030118858179 Q 0.013138722281339603 -0.8243112913321854 -0.061560256834017855 -0.868777009741128 Q -0.13625923594937533 -0.9132427281500708 -0.18736232868437155 -0.9978057338790441 Q -0.23797872529808214 -1.081563377648694 -0.24261121395229032 -1.1683716586094905 M 0.5778535624083423 -1.7686590178038144 L 0.8251730358531816 -1.1530785827021395 L 0.6540329432575387 -1.0843202610068368 L 0.4067134698126993 -1.6999006961085117 L 0.5778535624083423 -1.7686590178038144 M 1.3552627056131712 -1.6453863605733479 Q 1.3399279640937063 -1.5908332438060064 1.292501258293131 -1.5488314556368623 Q 1.2450745524925555 -1.506829667467718 1.1664280444436297 -1.4877575871483022 L 1.0777220993186785 -1.4662460546950076 L 1.1305029727607827 -1.2485964161410037 L 0.951262093951603 -1.2051298144828002 L 0.7949153890075547 -1.8498482816280641 L 1.0628622129416856 -1.914826415739562 Q 1.1405942267109728 -1.9336767276831708 1.2016596876236885 -1.9194371176545366 Q 1.2627251485364044 -1.9051975076259025 1.3019137008433441 -1.8633823620792678 Q 1.3411022531502836 -1.821567216532633 1.3564042710809778 -1.7584671112375645 Q 1.370597447132636 -1.6999394773406895 1.3552627056131712 -1.6453863605733479 M 1.1735054151532434 -1.7141134360761323 Q 1.156429250216092 -1.7845294956083102 1.080526225006082 -1.766122720416316 L 1.0091956711942658 -1.7488247871033573 L 1.0431262326927613 -1.6089071623186406 L 1.1144567865045778 -1.626205095631599 Q 1.1903598117145875 -1.6446118708235935 1.1735054151532434 -1.7141134360761323 M 1.7194618834420898 -1.8636301356814942 L 1.7258948124140217 -1.755606510257043 L 1.937245383896643 -1.7681926756369095 L 1.9455802223037544 -1.6282316305217512 L 1.734229650821133 -1.615645465141885 L 1.7413338419466575 -1.496349809238361 L 1.9808644896269618 -1.5106141300022093 L 1.9896468361364685 -1.3631383979010023 L 1.5660063572979697 -1.3379101286284705 L 1.5265697057743886 -2.0001419192740175 L 1.9502101846128874 -2.0253701885465496 L 1.9589925311223941 -1.8778944564453426 L 1.7194618834420898 -1.8636301356814942 M 2.177493279663937 -1.4024978206692456 Q 2.1100671550568673 -1.4658250817320921 2.1163984110792597 -1.5683540643378846 L 2.311730571664179 -1.5454620875288068 Q 2.310481735969532 -1.5105531599112507 2.3263771782918248 -1.4925838092446664 Q 2.3422726206141173 -1.4746144585780823 2.370310729788986 -1.4713285288925686 Q 2.395545028046368 -1.4683711921756064 2.4133792600901893 -1.4790715489877477 Q 2.4312134921340105 -1.4897719057998893 2.4338422358824214 -1.512202393139784 Q 2.437237696557452 -1.5411751059538152 2.4119962178435363 -1.5602397665155707 Q 2.386754739129621 -1.579304427077326 2.3283056533639312 -1.606050617818347 Q 2.266337215020627 -1.6351041397957609 2.2289714766308477 -1.6598531850922278 Q 2.1916057382410683 -1.6846022303886945 2.1667112596724163 -1.726838507583719 Q 2.1418167811037647 -1.7690747847787434 2.1491553574014115 -1.8316932286026169 Q 2.1566034646885757 -1.8952462760656528 2.1936922414116737 -1.9368504989214421 Q 2.2307810181347723 -1.978454721777231 2.2895955112224375 -1.9952479533852614 Q 2.3484100043101033 -2.0120411849932913 2.4194398808864372 -2.0037168297899903 Q 2.5343961285033996 -1.9902445180793849 2.5967914640845935 -1.9284542810980447 Q 2.659186799665788 -1.8666640441167048 2.6524685949518187 -1.7689176106962408 L 2.4533980198102507 -1.792247711463387 Q 2.455968407835636 -1.8222645589060975 2.4404307363434077 -1.839244540438761 Q 2.424893064851179 -1.8562245219714242 2.3977895593154726 -1.8594009206674207 Q 2.3772282792539023 -1.8618106024367973 2.3627199254419073 -1.8511941889809274 Q 2.348211571629913 -1.8405777755250572 2.345582827881502 -1.8181472881851621 Q 2.3433922080911596 -1.7994552154019163 2.3562903651501768 -1.7842057322965477 Q 2.3691885222091944 -1.768956249191179 2.3895343305199974 -1.7566236982210812 Q 2.4098801388308004 -1.7442911472509834 2.4501848067608294 -1.7244085944961163 Q 2.5102840378258096 -1.6955741344977366 2.548474848865234 -1.6697809545725906 Q 2.5866656599046585 -1.6439877746474443 2.6116696694628274 -1.602686101091582 Q 2.6366736790209964 -1.56138442753572 2.629882757670935 -1.5034390019076578 Q 2.6229823053313566 -1.4445589726404335 2.588065741221888 -1.401279016852108 Q 2.55314917711242 -1.3579990610637827 2.494363861886267 -1.3374126494043448 Q 2.4355785466601145 -1.316826237744907 2.3598756518879687 -1.3256982478957935 Q 2.244919404271007 -1.339170559606399 2.177493279663937 -1.4024978206692456 M 3.494569010257187 -1.7241543739603715 L 3.28545048835062 -1.0945706719630814 L 3.1104172889300967 -1.1527085872732759 L 3.1943613197096123 -1.4054350945998477 L 2.9809279795998926 -1.4763277566362585 L 2.896983948820377 -1.2236012493096866 L 2.721950749399854 -1.281739164619881 L 2.931069271306421 -1.9113228666171713 L 3.106102470726944 -1.853184951306977 L 3.027497636251426 -1.6165329214782083 L 3.2409309763611454 -1.5456402594417975 L 3.3195358108366637 -1.7822922892705662 L 3.494569010257187 -1.7241543739603715 M 3.825844850073553 -0.9128193771424921 L 3.6245564072078413 -1.034579490762253 L 3.537950911627163 -0.9604943443142291 L 3.3720892347058165 -1.0608246779369122 L 3.922377274379494 -1.5032886900171052 L 4.104342026730097 -1.3932175473048414 L 3.9670978718168604 -0.700901782076899 L 3.8004310411240514 -0.8017191561540611 L 3.825844850073553 -0.9128193771424921 M 3.85944838344373 -1.0574574251313922 L 3.9093019204337756 -1.2780475595653287 L 3.73787016395284 -1.1310005337577278 L 3.85944838344373 -1.0574574251313922 M 4.2794881301117105 -0.4070939179672729 L 4.351376482498225 -0.675507792405895 L 4.336993592608104 -0.6890587923471785 L 4.169219307620786 -0.5109849175171125 L 4.034979001979659 -0.6374609169690911 L 4.489905428579888 -1.1203150775660007 L 4.701539379820235 -0.9209217927156875 Q 4.759755838899295 -0.8660725072390641 4.781128982006403 -0.8077961144631459 Q 4.802502125113511 -0.7495197216872276 4.789816896529107 -0.6948888251358125 Q 4.777131667944704 -0.6402579285843972 4.735833382409364 -0.5964243593954579 Q 4.689372811182106 -0.5471115940579012 4.62715120892212 -0.5352733558992877 Q 4.564929606662133 -0.5234351177406742 4.498035671886005 -0.5567241428866153 L 4.4294811246801125 -0.2657763471510315 L 4.2794881301117105 -0.4070939179672729 M 4.423461877947722 -0.7808353278365201 L 4.489897131249708 -0.7182426138220205 Q 4.517293111992795 -0.692431185362433 4.543251530882642 -0.6925385619856057 Q 4.569209949772491 -0.6926459386087782 4.592440235386119 -0.7173023212775567 Q 4.614379949576769 -0.7405889049091807 4.612922580819985 -0.7671728026069742 Q 4.611465212063202 -0.7937567003047677 4.584754130838692 -0.8189228430528656 L 4.518318877536706 -0.8815155570673652 L 4.423461877947722 -0.7808353278365201 M 5.022713148206052 -0.33410699128639254 L 4.935474471705663 -0.2700765333194186 L 5.060751454684525 -0.09939216625343944 L 4.947720473827499 -0.01643096419188192 L 4.822443490848637 -0.18711533125786112 L 4.726101648104729 -0.11640343419868122 L 4.868082228814106 0.07703884847609516 L 4.7489824704614 0.16445434326579 L 4.497871717912659 -0.17767298805312826 L 5.032682734719394 -0.5702075347202293 L 5.283793487268135 -0.22808020340131102 L 5.164693728915429 -0.14066470861161617 L 5.022713148206052 -0.33410699128639254" fill="#f9f9f9" fill-rule="nonzero"></path></g><g><path d=" M -1.3484578204253679 2.367626777332189 Q -1.3818252052281021 2.4465365893420157 -1.4504303034321429 2.494203019168613 Q -1.5190354016361838 2.54186944899521 -1.613521367656143 2.5501486596626055 Q -1.7070988147720643 2.5583482625351226 -1.7834024817620953 2.5233792759916946 Q -1.8597061487521265 2.4884102894482667 -1.9063282314021817 2.4160517039357554 Q -1.9529503140522368 2.343693118423244 -1.9617071714889052 2.2437560389790563 L -1.9826440215420307 2.0048155672170442 L -1.3448637509073063 1.9489308952121238 L -1.3239269008541807 2.187871366974136 Q -1.3150904356226334 2.2887169653223616 -1.3484578204253679 2.367626777332189 M -1.7679497804942208 2.3549475187737463 Q -1.7154994576567477 2.3997883264632254 -1.627373123965055 2.3920663703599816 Q -1.5392467902733622 2.384344414256738 -1.494485590378762 2.3309855725152264 Q -1.4497243904841617 2.2776267307737155 -1.4574463465874055 2.1895003970820226 L -1.4638945779725887 2.115910365854939 L -1.834570290820121 2.148390346165491 L -1.8281220594349379 2.221980377392575 Q -1.8204001033316939 2.3101067110842672 -1.7679497804942208 2.3549475187737463 M -1.224036923831095 2.78112110889421 L -1.8465642452757718 2.9306085807134763 L -1.882977860206106 2.7789673101051577 L -1.2604505387614293 2.629479838285891 L -1.224036923831095 2.78112110889421 M -1.7365176009307977 3.2376841779497787 Q -1.7352826729713744 3.177573992648658 -1.7055815331578155 3.1304258157827873 Q -1.6758803933442568 3.0832776389169165 -1.6178318032364762 3.058913293112055 L -1.558054727094143 3.2137596344439503 Q -1.5899223040577395 3.2299722241960303 -1.59980954167329 3.256273850083675 Q -1.6096967792888404 3.2825754759713206 -1.597544296776388 3.314055226681651 Q -1.5850633687906261 3.346385781465233 -1.5629484970959038 3.3593556752938643 Q -1.5408336254011812 3.3723255691224954 -1.5144586991303641 3.3621437594499 Q -1.4923377932258075 3.3536041771438527 -1.4836219197634373 3.3331315328156776 Q -1.474906046301067 3.312658888487503 -1.473922561064686 3.287350484413168 Q -1.472939075828305 3.2620420803388326 -1.4764647560483222 3.2174560522696476 Q -1.4809321626950742 3.1527040203489998 -1.477188432509088 3.1092220902596566 Q -1.473444702323102 3.0657401601703134 -1.4487435449923582 3.0258989694938054 Q -1.4240423876616144 2.986057778817298 -1.3678893188269714 2.9643803775788693 Q -1.2845105196482587 2.9321927211945362 -1.2139712649777872 2.974371086626762 Q -1.1434320103073157 3.016549452058987 -1.10598922635003 3.113541116409735 Q -1.0678895514461253 3.212234388906986 -1.0917895489066447 3.2908702018765688 Q -1.115689546367164 3.3695060148461513 -1.198276922252581 3.406276137070055 L -1.259039334814843 3.2488773835184035 Q -1.2307688872708882 3.2360086292793757 -1.2217324537285899 3.2100354488650398 Q -1.2126960201862915 3.1840622684507043 -1.2245200572254342 3.153433321813626 Q -1.2347018668980296 3.127058395542809 -1.2549805980995714 3.1163124684606247 Q -1.275259329301113 3.105566541378441 -1.3016342555719302 3.1157483510510358 Q -1.330561594062504 3.1269154971435595 -1.3362166163083906 3.1603816914805103 Q -1.341871638554277 3.1938478858174606 -1.3382550359807772 3.2589283632114174 Q -1.3354892374805296 3.324337286078684 -1.3393971904031705 3.3673938141314013 Q -1.3433051433258112 3.4104503421841184 -1.3671554965833028 3.449963087387317 Q -1.3910058498407945 3.489475832590515 -1.4446065064556812 3.5101678974090147 Q -1.4956547508508113 3.529874625807586 -1.5473617373761082 3.5200189297655617 Q -1.599068723901405 3.510163233723537 -1.6427918794776701 3.4703415162008873 Q -1.6865150350539353 3.4305197986782376 -1.7124622274453878 3.3633062768913162 Q -1.737752528890221 3.2977943632508993 -1.7365176009307977 3.2376841779497787 M -1.0938697751282525 3.55121718908208 Q -1.0091242864132632 3.546008031140759 -0.9347341138122565 3.5857311892779515 Q -0.8603439412112497 3.625454347415144 -0.8104681994052553 3.7039774329078945 Q -0.7493459667998699 3.8002067043450882 -0.756635992503674 3.900994484424014 Q -0.7639260182074781 4.00178226450294 -0.8370177779329064 4.080620765783977 L -0.9289456157714061 3.9358919415424376 Q -0.9053414473032185 3.8982103980638936 -0.9064609090012336 3.857325291661847 Q -0.9075803706992485 3.8164401852598004 -0.9315402858805595 3.77871831085642 Q -0.9701695368871631 3.7179014113081137 -1.0364703315008397 3.707073319251103 Q -1.1027711261145159 3.6962452271940927 -1.1735958698922908 3.741231190391656 Q -1.2444206136700657 3.7862171535892197 -1.26280157792112 3.8508328103389693 Q -1.281182542172174 3.9154484670887193 -1.2425532911655708 3.976265366637026 Q -1.2185933759842595 4.013987241040406 -1.1820615423973573 4.032379365843671 Q -1.1455297088104548 4.050771490646936 -1.101388470186858 4.045422982371289 L -1.0094606323483581 4.190151806612828 Q -1.1118910637243715 4.222800257604013 -1.2058342315724957 4.186313066225953 Q -1.2997773994206197 4.149825874847893 -1.3608996320260052 4.053596603410699 Q -1.4107753738319995 3.975073517917948 -1.415110636826729 3.8908533744440352 Q -1.4194458998214587 3.806633230970122 -1.3790933356680957 3.732383486524442 Q -1.3387407715147326 3.6581337420787627 -1.2586780176789871 3.607280044551082 Q -1.1786152638432417 3.5564263470234017 -1.0938697751282525 3.55121718908208 M -0.906555095910034 4.5840365067049955 Q -0.9302297638448183 4.5012081419850665 -0.9084430120951703 4.416692670784823 Q -0.8866562603455223 4.332177199584579 -0.8203430038762913 4.265645071161944 Q -0.7540297474070605 4.199112942739308 -0.6699084342131311 4.177370791361654 Q -0.5857871210192016 4.155628639984 -0.5028811948788908 4.179030249219634 Q -0.41997526873857993 4.2024318584552685 -0.3560269122935229 4.2661698428286075 Q -0.29207855584846587 4.329907827201946 -0.26840388791368164 4.4127361919218755 Q -0.2447292199788973 4.495564556641805 -0.26684000571095323 4.579113238320878 Q -0.2889507914430093 4.662661919999952 -0.3552640479122401 4.7291940484225865 Q -0.421577304381471 4.795726176845222 -0.5056975550901898 4.8181132087320595 Q -0.5898178057989085 4.840500240618898 -0.6724007604420221 4.81742054039525 Q -0.7549837150851356 4.794340840171603 -0.8189320715301927 4.730602855798264 Q -0.8828804279752498 4.6668648714249255 -0.906555095910034 4.5840365067049955 M -0.5955633177018299 4.680256465211011 Q -0.5268893871424124 4.6765964677355605 -0.46765812893688585 4.617169712251265 Q -0.40778305270738613 4.557097013772575 -0.4046712735938013 4.488734367373037 Q -0.40155949448021644 4.420371720973499 -0.4558187060093557 4.366291006959758 Q -0.5107238605328897 4.311566474922042 -0.578753973068334 4.3145805294030986 Q -0.6467840856037783 4.317594583884154 -0.7073029798572512 4.378313225357239 Q -0.7671780560867509 4.438385923835929 -0.7702898352003358 4.506748570235467 Q -0.7734016143139206 4.575111216635005 -0.7184964597903867 4.629835748672719 Q -0.6642372482612474 4.683916462686462 -0.5955633177018299 4.680256465211011 M 0.4678236777969432 4.892625306422111 L -0.06760658243704476 5.310680525676414 L -0.23223115562035027 5.205850672446457 L -0.07989920120545646 4.543845607825242 L 0.06010861337099965 4.63299996898343 L -0.06566309914293705 5.12595052154962 L 0.32858513692695124 4.803960804391165 L 0.4678236777969432 4.892625306422111 M 0.6508407732574508 5.097033157316047 L 0.602294204707954 5.2170936283215745 L 0.7959128516112335 5.2953835170387205 L 0.7507850554947998 5.40698902529738 L 0.5571664085915202 5.328699136580234 L 0.5045173131223476 5.458905562882002 L 0.7235008482662315 5.547451768898338 L 0.6766636659332661 5.663284758530431 L 0.31310026781793776 5.516277543908715 L 0.5530980926189716 4.922739159078574 L 0.9166614907343 5.069746373700291 L 0.8698243084013346 5.1855793633323835 L 0.6508407732574508 5.097033157316047 M 1.2200502206728816 5.804492016849404 L 1.1408079523183423 5.540182841053279 L 1.1042553320345878 5.532304540831045 L 1.0533346110860011 5.768559281689459 L 0.9008834386830248 5.735701005152824 L 1.03577531078079 5.109848823709026 L 1.291643652767072 5.164996925264665 Q 1.3656404206585753 5.180945679373091 1.412222312857474 5.218040961110397 Q 1.458804205056373 5.255136242847704 1.4749547374223742 5.305730828964153 Q 1.4911052697883758 5.356325415080601 1.4791917426230459 5.41160010916823 Q 1.4657409861460606 5.474007021847811 1.419957205330666 5.515450954941183 Q 1.3741734245152712 5.556894888034555 1.3011062862967229 5.562604184361733 L 1.3921149942037263 5.8415776739930925 L 1.2200502206728816 5.804492016849404 M 1.1275059253733763 5.424429734627769 L 1.2220078217167418 5.444798023007204 Q 1.2639096059444603 5.45382924521318 1.2892800323293292 5.437839727864305 Q 1.314650458714198 5.421850210515431 1.322720912600389 5.384406062907682 Q 1.3304070591586663 5.348744969947922 1.3138757013158164 5.323724230393071 Q 1.2973443434729663 5.298703490838221 1.2554425592452478 5.289672268632246 L 1.1609406629018824 5.269303980252811 L 1.1275059253733763 5.424429734627769 M 2.285060994474947 5.750352276607632 L 2.0464429200317507 5.762828240899872 L 2.0140958224959626 5.877761949797699 L 1.851070496826756 5.886285604791252 L 2.048974557801639 5.23483986742731 L 2.229304247648024 5.225411466931647 L 2.4940642394103305 5.852667166660254 L 2.329217401722474 5.86128605802245 L 2.285060994474947 5.750352276607632 M 2.2387021297341976 5.632227683486856 L 2.147228483552275 5.402306171126258 L 2.0811413401209418 5.64046562937448 L 2.2387021297341976 5.632227683486856 M 3.275525012811766 5.662044595176353 L 3.125025999132789 5.702923357213079 L 2.7698024794012723 5.390205538613701 L 2.8733141984767228 5.771293684362221 L 2.722815184797746 5.812172446398947 L 2.554997109068032 5.194334390243148 L 2.7054961227470087 5.153455628206423 L 3.0611977566543933 5.46793366918801 L 2.9572079234030753 5.08508530105728 L 3.1077069370820514 5.044206539020554 L 3.275525012811766 5.662044595176353 M 3.62529693777313 4.83714246093284 Q 3.710966717773064 4.838053281860863 3.7811104261259096 4.883425169748749 Q 3.851254134478755 4.928797057636636 3.8947853194112207 5.013065551407294 Q 3.937897935257797 5.096523771199389 3.9345159961042606 5.180390582892464 Q 3.931134056950725 5.26425739458554 3.881893219519749 5.334859968314095 Q 3.832652382088773 5.405462542042652 3.7435222444467304 5.451505141490451 L 3.530420188084392 5.561588811079282 L 3.2365846897902513 4.992776478127338 L 3.4496867461525893 4.882692808538507 Q 3.539627157773196 4.836231640004818 3.62529693777313 4.83714246093284 M 3.7728282151819865 5.2300403997746105 Q 3.794398848472322 5.164493148272706 3.7537976471410803 5.085896572351996 Q 3.7131964458098388 5.007299996431286 3.6468389203293707 4.98614793222684 Q 3.5804813948489027 4.964995868022393 3.5018848189281924 5.005597069353635 L 3.4362526266645066 5.039501165310651 L 3.607028813707255 5.370092948564772 L 3.672661005970941 5.336188852607756 Q 3.751257581891651 5.295587651276515 3.7728282151819865 5.2300403997746105 M 4.50942713729108 4.9251169109743005 Q 4.45286477968597 4.945499725454926 4.39820534766962 4.9346620698205195 Q 4.343545915653269 4.923824414186112 4.300001783135653 4.878358287418063 L 4.4231526087787945 4.767072338622123 Q 4.449706209359093 4.7910159562314565 4.477804181557493 4.790823731524741 Q 4.505902153755895 4.790631506818025 4.530938310617413 4.768007440304565 Q 4.556651120367079 4.7447719125339844 4.560836911906751 4.719478339334723 Q 4.565022703446422 4.694184766135461 4.546067404475685 4.673208526602838 Q 4.530169411790551 4.6556155515109605 4.507933144876891 4.654813024412035 Q 4.485696877963233 4.654010497313109 4.461716155487103 4.662159577600043 Q 4.437735433010975 4.670308657886976 4.397372289668278 4.689574196537555 Q 4.338519206874606 4.716943851370621 4.296582446284662 4.729026974775673 Q 4.254645685694718 4.741110098180725 4.208599534620152 4.732322628737347 Q 4.162553383545586 4.72353515929397 4.1221969405756305 4.678876068676128 Q 4.062273737377816 4.612564085637513 4.076379992666213 4.5315961010896775 Q 4.090486247954611 4.450628116541842 4.167624677203611 4.380921533230099 Q 4.24611641222891 4.309992027404116 4.328094867057689 4.304132513440832 Q 4.410073321886467 4.29827299947755 4.473991250782148 4.362204329118711 L 4.34881046647456 4.475324661686013 Q 4.326667477956162 4.453541386003184 4.299180967014881 4.4544102635980485 Q 4.271694456073601 4.455279141192913 4.247334952100233 4.477291746449253 Q 4.22635871256761 4.49624704541999 4.223591418435265 4.519029581959741 Q 4.220824124302921 4.541812118499492 4.239779423273657 4.562788358032115 Q 4.2605691060157564 4.585794556229185 4.293839762321819 4.579084200876161 Q 4.327110418627882 4.572373845523137 4.386574962678674 4.5456808435782206 Q 4.446650967986588 4.519664494521453 4.488249402132458 4.507887101744961 Q 4.529847836278327 4.496109708968469 4.575282526095772 4.504220525523698 Q 4.620717215913217 4.512331342078926 4.659239275111812 4.55496047403232 Q 4.695926950539045 4.595559647321268 4.705250639049403 4.6473652071827525 Q 4.714574327559761 4.699170767044236 4.693060836503609 4.754258453713553 Q 4.671547345447455 4.8093461403828695 4.618091767283674 4.857651579695393 Q 4.565989494896191 4.904734096493676 4.50942713729108 4.9251169109743005 M 4.774123389003588 3.690575108888199 L 5.286573414467146 4.074348142826748 L 5.193090239533396 4.199175713131974 L 4.982124345859653 4.041183680641602 L 4.836706073740487 4.235359901116397 L 5.047671967414231 4.39335193360677 L 4.9541887924804815 4.518179503911995 L 4.441738767016924 4.134406469973445 L 4.535221941950673 4.009578899668219 L 4.735968034546796 4.159917338889161 L 4.881386306665962 3.9657411184143663 L 4.680640214069839 3.815402679193424 L 4.774123389003588 3.690575108888199 M 5.490542822993536 3.431568346992519 L 5.390343789403591 3.6484885830325005 L 5.476945888098935 3.730684499363922 L 5.408489296447789 3.8788857293301686 L 4.924415055347709 3.400116792176366 L 5.000137989129423 3.2361847053980597 L 5.678491272457334 3.294360207787318 L 5.609269802687182 3.444217317417992 L 5.490542822993536 3.431568346992519 M 5.364427446523172 3.417515743755445 L 5.118374711467446 3.3912596708656078 L 5.298265489229049 3.56074933472841 L 5.364427446523172 3.417515743755445 M 5.819295701655833 2.7634300717704527 L 5.553358007172476 2.8370223278635813 L 5.544702615853553 2.8733987744343543 L 5.77981867295733 2.9293421573493448 L 5.743719357944261 3.0810585564615938 L 5.1208836142202925 2.9328613685132034 L 5.1814713534527534 2.6782262425177916 Q 5.19899324319594 2.6045861189720805 5.237072690579096 2.5588052463832645 Q 5.275152137962253 2.5130243737944484 5.326079379427443 2.497955600893307 Q 5.377006620892634 2.482886827992165 5.432014905950876 2.4959754685232194 Q 5.49412103424244 2.5107529658969905 5.534579975810612 2.557409457655193 Q 5.575038917378784 2.6040659494133958 5.579189969563435 2.6772381539569263 L 5.860039372986374 2.5921946037665697 L 5.819295701655833 2.7634300717704527 M 5.437347736949564 2.8478548146882643 L 5.45972509011556 2.7538083918467535 Q 5.469647124066521 2.712108562850989 5.454201841746202 2.6864031849302963 Q 5.438756559425882 2.660697807009604 5.4014928824509445 2.651831308585341 Q 5.366003666284336 2.6433870243717577 5.340636350013057 2.6593814754468292 Q 5.315269033741776 2.675375926521901 5.305346999790816 2.7170757555176652 L 5.28296964662482 2.811122178359176 L 5.437347736949564 2.8478548146882643 M 5.382571325157125 2.1798813721828174 L 5.511829459683118 2.1878576291282923 L 5.524692578278286 1.9794061304913033 L 5.644848027274279 1.9868206792011815 L 5.631984908679112 2.1952721778381705 L 5.772166265841104 2.203922484666362 L 5.786714509143063 1.9681629294393743 L 5.911421300904056 1.9758583322670509 L 5.887267846773392 2.3672738100570303 L 5.248259322567425 2.3278418919181325 L 5.27241277669809 1.936426414128153 L 5.3971195684590825 1.9441218169558296 L 5.382571325157125 2.1798813721828174" fill="#e9e9e5" fill-rule="nonzero"></path></g><g clip-path="url(#SvgjsClipPath1004)"><g clip-path="url(#SvgjsClipPath100006c8a27b-e1de-4504-9958-9717450faa76)"><path d=" M 1.1176171418371927 0.4545025346774657 C 0.8035972087873104 0.14029896423983393 0.3634183903542241 0.07106766905865883 0.1347898426073771 0.29969621680550307 C -0.09383870513946987 0.5283247645523529 -0.024607409958294798 0.968503582985431 0.2894125230915902 1.2827071534230685 C 0.5738668367139721 1.5671614670454503 0.9609744500877464 1.6499819289200095 1.2015394280382432 1.4935228745583156 L 2.130744610045504 2.4227280565655733 C 2.5196885972967644 2.911570782752007 3.0195495667481027 3.5333669776683276 3.135241121029639 3.6490585319498643 C 3.330814938981759 3.8446323499019845 3.567523531789539 3.9245146135725686 3.663933160357485 3.828839534555618 C 3.760342788925434 3.7331644555386667 3.679725975703855 3.495904950567644 3.4841521577517343 3.300331132615524 C 3.3679096913069526 3.184088666170736 2.7417061990846663 2.680922223739932 2.2521289233472435 2.2903254999989313 L 1.3280655881969408 1.3662621648486255 C 1.4850755547218832 1.12679901122462 1.4024387302350707 0.7391404856875944 1.1176171418371927 0.4545025346774657 Z" fill="#ffc632" transform="matrix(1,0,0,1,0,0)" fill-rule="nonzero"></path></g><g clip-path="url(#SvgjsClipPath100006c8a27b-e1de-4504-9958-9717450faa76)"><path d=" M 3.898989016675528 0.6985566229951834 L 3.8936635324308235 0.6930475013627265 C 3.848671622295632 0.6482702368917491 3.775952717020872 0.6482702368917491 3.7309608068856805 0.6930475013627265 L 3.0296496230742687 1.3943586851741328 L 2.8652941610393885 1.229085036200508 L 3.5666053448508004 0.5277738523891017 C 3.611462415274259 0.48288660962898855 3.611462415274259 0.41014200699181264 3.5666053448508004 0.36525476423170516 L 3.5666053448508004 0.36525476423170516 C 3.5216551214687954 0.3203766313458342 3.448852842687659 0.3203766313458342 3.4039026193056543 0.36525476423170516 L 2.7025914354942455 1.0665659480431113 L 2.5382359734593654 0.9012922990694864 L 3.239547157270774 0.19998111525807463 C 3.2844042276942296 0.15509387249796155 3.2844042276942296 0.08234926986078561 3.239547157270774 0.03746202710067811 L 3.2342216730260693 0.03195290546822692 C 3.1892297628908777 -0.012824359002750552 3.116510857616118 -0.012824359002750552 3.0715189474809264 0.03195290546822692 L 2.4006915700357627 0.7027802829133909 C 2.2017361200094463 0.9018671224021142 2.1880210896668975 1.22002393092983 2.3691059393430263 1.4354934600297895 L 1.5126211628841586 2.2917945991009105 C 1.0234111619222321 2.6811058611276675 0.39941131835292865 3.1826195670687403 0.28353612668364286 3.2986783961257755 C 0.08796230873152251 3.4942522140778958 0.00808004506093846 3.7309608068856788 0.10375512407789206 3.8271867980658807 C 0.19943020309484566 3.9234127892460773 0.43668970806586843 3.8429796134122474 0.6324471634057383 3.6474057954601213 C 0.748322355075024 3.5315306037908387 1.2498360610160966 2.9075307602215346 1.6391473230428562 2.418320759259608 L 2.4954484621139743 1.562019620188487 C 2.7105845595856057 1.7433069821752742 3.0286870798270025 1.7297435438905877 3.227610727067124 1.5308012642712525 L 3.8989890166755337 0.8594229746628372 C 3.9427560813944553 0.8147316683319906 3.9427560813944527 0.7432479293260299 3.898989016675528 0.6985566229951834 Z" fill="#ffc632" transform="matrix(1,0,0,1,0,0)" fill-rule="nonzero"></path></g></g><g transform="matrix(0.39100455313149296,-0.9203887436460974,0.9203887436460974,0.39100455313149296,-1.7712240308487872,-0.8350751387578614)"><g clip-path="url(#SvgjsClipPath1005)"><path d=" M -1.5161293732970822 1.1398433663576244 C -1.4834677047256535 1.1398433663576244 -1.466116193297082 1.1194298235004816 -1.466116193297082 1.0908508635004817 C -1.466116193297082 1.0755407063576243 -1.469688563297082 1.0622719035004815 -1.4834677047256535 1.0347136206433387 C -1.5028605704399394 0.9964382277861958 -1.5064329404399392 0.9841901020719102 -1.5100053104399391 0.9489767406433387 C -1.4849987204399393 0.9515284335004816 -1.4635645004399391 0.9571421577861958 -1.4457026504399393 0.965307574929053 C -1.3997721790113677 0.9862314563576244 -1.386503376154225 0.9918451806433387 -1.3671105104399393 0.9918451806433387 C -1.3405729047256536 0.9918451806433387 -1.3191386847256537 0.9739833306433388 -1.3191386847256537 0.9418320006433387 C -1.3191386847256537 0.9101910092147674 -1.340062566154225 0.8918188206433387 -1.3671105104399393 0.8918188206433387 C -1.3824206675827964 0.8918188206433387 -1.4013031947256536 0.897432544929053 -1.4242684304399393 0.9081496549290531 L -1.4457026504399393 0.9183564263576245 C -1.4656058547256534 0.9275425206433388 -1.4870400747256536 0.933156244929053 -1.5100053104399391 0.9357079377861959 C -1.5064329404399392 0.9050876235004817 -1.4982675232970821 0.8780396792147673 -1.4855090590113678 0.8535434277861959 C -1.4727505947256536 0.829557514929053 -1.466116193297082 0.8091439720719101 -1.466116193297082 0.7928131377861959 C -1.466116193297082 0.7662755320719101 -1.4814263504399392 0.7448413120719102 -1.5161293732970822 0.7448413120719102 C -1.5513427347256536 0.7448413120719102 -1.5671632304399392 0.7657651935004816 -1.5671632304399392 0.7928131377861959 C -1.5671632304399392 0.8096543106433387 -1.5630805218685107 0.8203714206433388 -1.5396049475827964 0.8714052777861958 C -1.5314395304399393 0.8892671277861959 -1.525825806154225 0.9107013477861958 -1.5232741132970822 0.9357079377861959 C -1.548280703297082 0.933156244929053 -1.5737976318685107 0.9255011663576245 -1.600845576154225 0.911722024929053 C -1.6273836071506536 0.8984532220719101 -1.6493281657220822 0.8918188206433387 -1.6661693385792251 0.8918188206433387 C -1.6927069442935108 0.8918188206433387 -1.7141411642935107 0.9096806706433387 -1.7141411642935107 0.9418320006433387 C -1.7141411642935107 0.9739833306433388 -1.6932172828649392 0.9918451806433387 -1.6661693385792251 0.9918451806433387 C -1.6477971500077964 0.9918451806433387 -1.6365697014363678 0.98776247207191 -1.5875767732970822 0.965307574929053 C -1.5697149232970822 0.9571421577861958 -1.548280703297082 0.9515284335004816 -1.5232741132970822 0.9489767406433387 C -1.526846483297082 0.979597054929053 -1.5350119004399394 1.0066449992147672 -1.5477703647256535 1.0311412506433388 C -1.560528829011368 1.0551271635004815 -1.5671632304399392 1.0750303677861959 -1.5671632304399392 1.0908508635004817 C -1.5671632304399392 1.118919484929053 -1.5498117190113678 1.1398433663576244 -1.5161293732970822 1.1398433663576244 Z" fill="#f9f9f9" transform="matrix(1,0,0,1,0,0)" fill-rule="nonzero"></path></g></g><g transform="matrix(-0.39100455313149296,-0.9203887436460974,-0.9203887436460974,0.39100455313149296,8.427767601289931,5.576417716843563)"><g clip-path="url(#SvgjsClipPath1006)"><path d=" M 5.449941104925473 1.1398433663576244 C 5.482602773496901 1.1398433663576244 5.499954284925472 1.1194298235004816 5.499954284925472 1.0908508635004817 C 5.499954284925472 1.0755407063576243 5.496381914925473 1.0622719035004815 5.482602773496901 1.0347136206433387 C 5.463209907782615 0.9964382277861958 5.459637537782616 0.9841901020719102 5.456065167782616 0.9489767406433387 C 5.481071757782615 0.9515284335004816 5.502505977782616 0.9571421577861958 5.520367827782616 0.965307574929053 C 5.566298299211187 0.9862314563576244 5.57956710206833 0.9918451806433387 5.598959967782616 0.9918451806433387 C 5.625497573496902 0.9918451806433387 5.646931793496901 0.9739833306433388 5.646931793496901 0.9418320006433387 C 5.646931793496901 0.9101910092147674 5.62600791206833 0.8918188206433387 5.598959967782616 0.8918188206433387 C 5.583649810639758 0.8918188206433387 5.564767283496901 0.897432544929053 5.541802047782616 0.9081496549290531 L 5.520367827782616 0.9183564263576245 C 5.500464623496901 0.9275425206433388 5.4790304034969015 0.933156244929053 5.456065167782616 0.9357079377861959 C 5.459637537782616 0.9050876235004817 5.467802954925473 0.8780396792147673 5.480561419211187 0.8535434277861959 C 5.493319883496901 0.829557514929053 5.499954284925472 0.8091439720719101 5.499954284925472 0.7928131377861959 C 5.499954284925472 0.7662755320719101 5.484644127782616 0.7448413120719102 5.449941104925473 0.7448413120719102 C 5.4147277434969014 0.7448413120719102 5.398907247782615 0.7657651935004816 5.398907247782615 0.7928131377861959 C 5.398907247782615 0.8096543106433387 5.402989956354044 0.8203714206433388 5.426465530639758 0.8714052777861958 C 5.434630947782615 0.8892671277861959 5.44024467206833 0.9107013477861958 5.4427963649254725 0.9357079377861959 C 5.417789774925473 0.933156244929053 5.392272846354044 0.9255011663576245 5.36522490206833 0.911722024929053 C 5.338686871071901 0.8984532220719101 5.316742312500473 0.8918188206433387 5.29990113964333 0.8918188206433387 C 5.273363533929044 0.8918188206433387 5.251929313929044 0.9096806706433387 5.251929313929044 0.9418320006433387 C 5.251929313929044 0.9739833306433388 5.272853195357616 0.9918451806433387 5.29990113964333 0.9918451806433387 C 5.318273328214758 0.9918451806433387 5.329500776786187 0.98776247207191 5.378493704925472 0.965307574929053 C 5.3963555549254725 0.9571421577861958 5.417789774925473 0.9515284335004816 5.4427963649254725 0.9489767406433387 C 5.439223994925473 0.979597054929053 5.431058577782616 1.0066449992147672 5.418300113496901 1.0311412506433388 C 5.405541649211187 1.0551271635004815 5.398907247782615 1.0750303677861959 5.398907247782615 1.0908508635004817 C 5.398907247782615 1.118919484929053 5.416258759211187 1.1398433663576244 5.449941104925473 1.1398433663576244 Z" fill="#f9f9f9" transform="matrix(1,0,0,1,0,0)" fill-rule="nonzero"></path></g></g></g><defs><clipPath id="SvgjsClipPath1004"><path d=" M 0 0 h 3.932778296021247 v 3.869607034635774 h -3.932778296021247 Z"></path></clipPath><clipPath id="SvgjsClipPath100006c8a27b-e1de-4504-9958-9717450faa76"><path d=" M 0 0 L 3.932778296021247 0 L 3.932778296021247 3.869607034635774 L 0 3.869607034635774 Z"></path></clipPath><clipPath id="SvgjsClipPath1005"><path d=" M -1.8143435911006536 0.6232106192147673 h 0.595395 v 0.595395 h -0.595395 Z"></path></clipPath><clipPath id="SvgjsClipPath1006"><path d=" M 5.151726887121901 0.6232106192147673 h 0.595395 v 0.595395 h -0.595395 Z"></path></clipPath></defs></svg>